<svg xmlns="http://www.w3.org/2000/svg" viewBox="0 0 64 64" role="img" aria-labelledby="title desc">
  <title>Awesomemen French Bulldog Favicon</title>
  <desc>A cartoon French bulldog face used as the website icon.</desc>
  <rect width="64" height="64" rx="16" fill="#f3efe8" />
  <path d="M18 26c-3-8 1-17 8-20 3 2 5 5 6 10 1-4 2-7 4-10 7 3 11 12 8 20l-6 1-6-10-6 10-8-1Z" fill="#2f3f34" />
  <path d="M32 54c-11 0-19-8-19-18 0-10 8-19 19-19s19 9 19 19c0 10-8 18-19 18Z" fill="#fcfbf7" />
  <path d="M21 30c0-5 4-9 9-9h4c5 0 9 4 9 9v4c0 8-5 14-11 14s-11-6-11-14v-4Z" fill="#f2efe8" />
  <path d="M23 29c-2-5 0-10 4-14 2 2 3 4 4 7l-2 8-6-1Z" fill="#2f3f34" />
  <path d="M41 29c2-5 0-10-4-14-2 2-3 4-4 7l2 8 6-1Z" fill="#2f3f34" />
  <ellipse cx="26.5" cy="32" rx="2.8" ry="3.5" fill="#243229" />
  <ellipse cx="37.5" cy="32" rx="2.8" ry="3.5" fill="#243229" />
  <circle cx="27.2" cy="30.9" r="0.7" fill="#fffdf8" />
  <circle cx="38.2" cy="30.9" r="0.7" fill="#fffdf8" />
  <path d="M28 39c2-2 6-2 8 0-1 4-3 6-4 6s-3-2-4-6Z" fill="#243229" />
  <path d="M26 36.5c2 1.5 4 2.2 6 2.2s4-.7 6-2.2" fill="none" stroke="#243229" stroke-linecap="round" stroke-width="2.2" />
  <path d="M19.5 34c-2 2-3 4-3 7M44.5 34c2 2 3 4 3 7" fill="none" stroke="#7b8c7d" stroke-linecap="round" stroke-width="2" />
  <circle cx="21.5" cy="39.5" r="2.8" fill="#e8bbb0" />
  <circle cx="42.5" cy="39.5" r="2.8" fill="#e8bbb0" />
</svg>
